<mxfile host="app.diagrams.net" agent="Mozilla/5.0 (Windows NT 10.0; Win64; x64) AppleWebKit/537.36 (KHTML, like Gecko) Chrome/130.0.0.0 Safari/537.36" version="24.7.17">
  <diagram name="Página-1" id="EbuJSc-vs1enz9WR0nu7">
    <mxGraphModel dx="2093" dy="900" grid="1" gridSize="10" guides="1" tooltips="1" connect="1" arrows="1" fold="1" page="1" pageScale="1" pageWidth="827" pageHeight="1169" math="0" shadow="0">
      <root>
        <mxCell id="0" />
        <mxCell id="1" parent="0" />
        <mxCell id="G91ZU0PX3mvlqJctJaQP-1" value="Inicio." style="rounded=1;whiteSpace=wrap;html=1;" vertex="1" parent="1">
          <mxGeometry x="190" y="120" width="120" height="60" as="geometry" />
        </mxCell>
        <mxCell id="G91ZU0PX3mvlqJctJaQP-2" value="Invitar asesor al proyecto." style="rounded=1;whiteSpace=wrap;html=1;" vertex="1" parent="1">
          <mxGeometry x="190" y="240" width="120" height="60" as="geometry" />
        </mxCell>
        <mxCell id="G91ZU0PX3mvlqJctJaQP-4" value="" style="endArrow=classic;html=1;rounded=0;exitX=0.5;exitY=1;exitDx=0;exitDy=0;" edge="1" parent="1" source="G91ZU0PX3mvlqJctJaQP-1">
          <mxGeometry width="50" height="50" relative="1" as="geometry">
            <mxPoint x="250" y="190" as="sourcePoint" />
            <mxPoint x="250" y="239" as="targetPoint" />
          </mxGeometry>
        </mxCell>
        <mxCell id="G91ZU0PX3mvlqJctJaQP-5" value="Notificación (La que recibe el asesor.)" style="rounded=1;whiteSpace=wrap;html=1;" vertex="1" parent="1">
          <mxGeometry x="190" y="360" width="120" height="60" as="geometry" />
        </mxCell>
        <mxCell id="G91ZU0PX3mvlqJctJaQP-6" value="" style="endArrow=classic;html=1;rounded=0;" edge="1" parent="1">
          <mxGeometry width="50" height="50" relative="1" as="geometry">
            <mxPoint x="251" y="304" as="sourcePoint" />
            <mxPoint x="251" y="360" as="targetPoint" />
            <Array as="points" />
          </mxGeometry>
        </mxCell>
        <mxCell id="G91ZU0PX3mvlqJctJaQP-7" value="¿Se acepto la invitación?" style="rhombus;whiteSpace=wrap;html=1;" vertex="1" parent="1">
          <mxGeometry x="195" y="470" width="110" height="110" as="geometry" />
        </mxCell>
        <mxCell id="G91ZU0PX3mvlqJctJaQP-8" value="" style="endArrow=classic;html=1;rounded=0;exitX=1;exitY=0.5;exitDx=0;exitDy=0;entryX=1.023;entryY=0.331;entryDx=0;entryDy=0;entryPerimeter=0;" edge="1" parent="1" source="G91ZU0PX3mvlqJctJaQP-7" target="G91ZU0PX3mvlqJctJaQP-2">
          <mxGeometry width="50" height="50" relative="1" as="geometry">
            <mxPoint x="300" y="530" as="sourcePoint" />
            <mxPoint x="380" y="525" as="targetPoint" />
            <Array as="points">
              <mxPoint x="520" y="525" />
              <mxPoint x="520" y="260" />
            </Array>
          </mxGeometry>
        </mxCell>
        <mxCell id="G91ZU0PX3mvlqJctJaQP-9" value="No." style="text;html=1;align=center;verticalAlign=middle;whiteSpace=wrap;rounded=0;" vertex="1" parent="1">
          <mxGeometry x="280" y="480" width="60" height="30" as="geometry" />
        </mxCell>
        <mxCell id="G91ZU0PX3mvlqJctJaQP-10" value="" style="endArrow=classic;html=1;rounded=0;" edge="1" parent="1">
          <mxGeometry width="50" height="50" relative="1" as="geometry">
            <mxPoint x="249.71" y="420" as="sourcePoint" />
            <mxPoint x="249.71" y="470" as="targetPoint" />
          </mxGeometry>
        </mxCell>
        <mxCell id="G91ZU0PX3mvlqJctJaQP-11" value="" style="endArrow=classic;html=1;rounded=0;" edge="1" parent="1">
          <mxGeometry width="50" height="50" relative="1" as="geometry">
            <mxPoint x="249.70999999999998" y="580" as="sourcePoint" />
            <mxPoint x="249.70999999999998" y="630" as="targetPoint" />
          </mxGeometry>
        </mxCell>
        <mxCell id="G91ZU0PX3mvlqJctJaQP-12" value="Si." style="text;html=1;align=center;verticalAlign=middle;whiteSpace=wrap;rounded=0;" vertex="1" parent="1">
          <mxGeometry x="180" y="560" width="60" height="30" as="geometry" />
        </mxCell>
        <mxCell id="G91ZU0PX3mvlqJctJaQP-13" value="Agregar a proyecto(Se agrega al asesor.)" style="rounded=1;whiteSpace=wrap;html=1;" vertex="1" parent="1">
          <mxGeometry x="190" y="630" width="120" height="60" as="geometry" />
        </mxCell>
        <mxCell id="G91ZU0PX3mvlqJctJaQP-14" value="" style="endArrow=classic;html=1;rounded=0;" edge="1" parent="1">
          <mxGeometry width="50" height="50" relative="1" as="geometry">
            <mxPoint x="310" y="660" as="sourcePoint" />
            <mxPoint x="370" y="660" as="targetPoint" />
            <Array as="points" />
          </mxGeometry>
        </mxCell>
        <mxCell id="G91ZU0PX3mvlqJctJaQP-15" value="Actualizar BD(Se actualiza la BD.)" style="rounded=1;whiteSpace=wrap;html=1;" vertex="1" parent="1">
          <mxGeometry x="370" y="630" width="120" height="60" as="geometry" />
        </mxCell>
        <mxCell id="G91ZU0PX3mvlqJctJaQP-16" value="" style="endArrow=classic;html=1;rounded=0;entryX=1;entryY=0.333;entryDx=0;entryDy=0;entryPerimeter=0;" edge="1" parent="1" target="G91ZU0PX3mvlqJctJaQP-1">
          <mxGeometry width="50" height="50" relative="1" as="geometry">
            <mxPoint x="490" y="660" as="sourcePoint" />
            <mxPoint x="660" y="200" as="targetPoint" />
            <Array as="points">
              <mxPoint x="660" y="660" />
              <mxPoint x="660" y="140" />
            </Array>
          </mxGeometry>
        </mxCell>
        <mxCell id="G91ZU0PX3mvlqJctJaQP-17" value="" style="endArrow=classic;html=1;rounded=0;" edge="1" parent="1">
          <mxGeometry width="50" height="50" relative="1" as="geometry">
            <mxPoint x="249.5" y="690" as="sourcePoint" />
            <mxPoint x="250" y="730" as="targetPoint" />
          </mxGeometry>
        </mxCell>
        <mxCell id="G91ZU0PX3mvlqJctJaQP-20" value="" style="edgeStyle=orthogonalEdgeStyle;rounded=0;orthogonalLoop=1;jettySize=auto;html=1;" edge="1" parent="1" source="G91ZU0PX3mvlqJctJaQP-18" target="G91ZU0PX3mvlqJctJaQP-19">
          <mxGeometry relative="1" as="geometry" />
        </mxCell>
        <mxCell id="G91ZU0PX3mvlqJctJaQP-18" value="Agendar reunión." style="rounded=1;whiteSpace=wrap;html=1;" vertex="1" parent="1">
          <mxGeometry x="190" y="730" width="120" height="60" as="geometry" />
        </mxCell>
        <mxCell id="G91ZU0PX3mvlqJctJaQP-22" value="" style="edgeStyle=orthogonalEdgeStyle;rounded=0;orthogonalLoop=1;jettySize=auto;html=1;" edge="1" parent="1" source="G91ZU0PX3mvlqJctJaQP-19" target="G91ZU0PX3mvlqJctJaQP-21">
          <mxGeometry relative="1" as="geometry" />
        </mxCell>
        <mxCell id="G91ZU0PX3mvlqJctJaQP-24" value="" style="edgeStyle=orthogonalEdgeStyle;rounded=0;orthogonalLoop=1;jettySize=auto;html=1;" edge="1" parent="1" source="G91ZU0PX3mvlqJctJaQP-19" target="G91ZU0PX3mvlqJctJaQP-23">
          <mxGeometry relative="1" as="geometry" />
        </mxCell>
        <mxCell id="G91ZU0PX3mvlqJctJaQP-19" value="Crear reunión." style="whiteSpace=wrap;html=1;rounded=1;" vertex="1" parent="1">
          <mxGeometry x="190" y="840" width="120" height="60" as="geometry" />
        </mxCell>
        <mxCell id="G91ZU0PX3mvlqJctJaQP-21" value="Actualizar la bases de datos." style="whiteSpace=wrap;html=1;rounded=1;" vertex="1" parent="1">
          <mxGeometry x="380" y="840" width="120" height="60" as="geometry" />
        </mxCell>
        <mxCell id="G91ZU0PX3mvlqJctJaQP-26" value="" style="edgeStyle=orthogonalEdgeStyle;rounded=0;orthogonalLoop=1;jettySize=auto;html=1;" edge="1" parent="1" source="G91ZU0PX3mvlqJctJaQP-23" target="G91ZU0PX3mvlqJctJaQP-25">
          <mxGeometry relative="1" as="geometry" />
        </mxCell>
        <mxCell id="G91ZU0PX3mvlqJctJaQP-23" value="Notificación a integrantes" style="whiteSpace=wrap;html=1;rounded=1;" vertex="1" parent="1">
          <mxGeometry x="190" y="950" width="120" height="60" as="geometry" />
        </mxCell>
        <mxCell id="G91ZU0PX3mvlqJctJaQP-32" value="" style="edgeStyle=orthogonalEdgeStyle;rounded=0;orthogonalLoop=1;jettySize=auto;html=1;" edge="1" parent="1" source="G91ZU0PX3mvlqJctJaQP-25" target="G91ZU0PX3mvlqJctJaQP-31">
          <mxGeometry relative="1" as="geometry" />
        </mxCell>
        <mxCell id="G91ZU0PX3mvlqJctJaQP-37" value="" style="edgeStyle=orthogonalEdgeStyle;rounded=0;orthogonalLoop=1;jettySize=auto;html=1;" edge="1" parent="1" source="G91ZU0PX3mvlqJctJaQP-25" target="G91ZU0PX3mvlqJctJaQP-36">
          <mxGeometry relative="1" as="geometry" />
        </mxCell>
        <mxCell id="G91ZU0PX3mvlqJctJaQP-25" value="¿Aceptaron la invitación?" style="rhombus;whiteSpace=wrap;html=1;rounded=1;" vertex="1" parent="1">
          <mxGeometry x="180" y="1060" width="140" height="120" as="geometry" />
        </mxCell>
        <mxCell id="G91ZU0PX3mvlqJctJaQP-27" value="No." style="text;html=1;align=center;verticalAlign=middle;whiteSpace=wrap;rounded=0;" vertex="1" parent="1">
          <mxGeometry x="290" y="1080" width="60" height="30" as="geometry" />
        </mxCell>
        <mxCell id="G91ZU0PX3mvlqJctJaQP-35" value="" style="edgeStyle=orthogonalEdgeStyle;rounded=0;orthogonalLoop=1;jettySize=auto;html=1;" edge="1" parent="1" source="G91ZU0PX3mvlqJctJaQP-31" target="G91ZU0PX3mvlqJctJaQP-34">
          <mxGeometry relative="1" as="geometry" />
        </mxCell>
        <mxCell id="G91ZU0PX3mvlqJctJaQP-31" value="Estado de reunión cancelada." style="whiteSpace=wrap;html=1;rounded=1;" vertex="1" parent="1">
          <mxGeometry x="370" y="1090" width="140" height="60" as="geometry" />
        </mxCell>
        <mxCell id="G91ZU0PX3mvlqJctJaQP-34" value="Actualizar base de datos." style="whiteSpace=wrap;html=1;rounded=1;" vertex="1" parent="1">
          <mxGeometry x="570" y="1090" width="120" height="60" as="geometry" />
        </mxCell>
        <mxCell id="G91ZU0PX3mvlqJctJaQP-39" value="" style="edgeStyle=orthogonalEdgeStyle;rounded=0;orthogonalLoop=1;jettySize=auto;html=1;" edge="1" parent="1" source="G91ZU0PX3mvlqJctJaQP-36" target="G91ZU0PX3mvlqJctJaQP-38">
          <mxGeometry relative="1" as="geometry" />
        </mxCell>
        <mxCell id="G91ZU0PX3mvlqJctJaQP-36" value="Estado de reunión aceptada." style="whiteSpace=wrap;html=1;rounded=1;" vertex="1" parent="1">
          <mxGeometry x="190" y="1220" width="120" height="60" as="geometry" />
        </mxCell>
        <mxCell id="G91ZU0PX3mvlqJctJaQP-41" value="" style="edgeStyle=orthogonalEdgeStyle;rounded=0;orthogonalLoop=1;jettySize=auto;html=1;" edge="1" parent="1" source="G91ZU0PX3mvlqJctJaQP-38" target="G91ZU0PX3mvlqJctJaQP-40">
          <mxGeometry relative="1" as="geometry" />
        </mxCell>
        <mxCell id="G91ZU0PX3mvlqJctJaQP-38" value="Actualizar la base de datos." style="whiteSpace=wrap;html=1;rounded=1;" vertex="1" parent="1">
          <mxGeometry x="190" y="1330" width="120" height="60" as="geometry" />
        </mxCell>
        <mxCell id="G91ZU0PX3mvlqJctJaQP-40" value="Fin." style="whiteSpace=wrap;html=1;rounded=1;" vertex="1" parent="1">
          <mxGeometry x="190" y="1450" width="120" height="60" as="geometry" />
        </mxCell>
      </root>
    </mxGraphModel>
  </diagram>
</mxfile>
